<svg width="20" height="20" viewBox="0 0 20 20" fill="none" xmlns="http://www.w3.org/2000/svg">
<g opacity="0.5">
<path fill-rule="evenodd" clip-rule="evenodd" d="M20 20H0L0 0H20V20Z" fill="white" fill-opacity="0.01"/>
<path fill-rule="evenodd" clip-rule="evenodd" d="M1.66667 9.58342C1.66667 9.35337 1.85322 9.16688 2.08333 9.16688H15.5583L11.85 5.46799C11.7711 5.38978 11.7267 5.28331 11.7267 5.17224C11.7267 5.06117 11.7711 4.95471 11.85 4.8765L12.4417 4.29334C12.5199 4.21448 12.6264 4.17013 12.7375 4.17013C12.8486 4.17013 12.9551 4.21448 13.0333 4.29334L18.15 9.40014C18.2672 9.5172 18.3332 9.67601 18.3333 9.84167V10.1582C18.3314 10.3235 18.2657 10.4817 18.15 10.5998L13.0333 15.7066C12.9551 15.7854 12.8486 15.8298 12.7375 15.8298C12.6264 15.8298 12.5199 15.7854 12.4417 15.7066L11.85 15.1151C11.7716 15.0383 11.7274 14.9332 11.7274 14.8235C11.7274 14.7138 11.7716 14.6087 11.85 14.5319L15.5583 10.833H2.08333C1.85322 10.833 1.66667 10.6465 1.66667 10.4165L1.66667 9.58342Z" fill="#1995AD"/>
</g>
</svg>
