<svg width="24" height="24" viewBox="0 0 24 24" fill="none" xmlns="http://www.w3.org/2000/svg">
<path fill-rule="evenodd" clip-rule="evenodd" d="M15.389 7.33333H13.0557C12.6261 7.33333 12.2779 7.68156 12.2779 8.11111V10.4444H15.389C15.4775 10.4425 15.5614 10.4836 15.614 10.5548C15.6666 10.626 15.6813 10.7182 15.6535 10.8022L15.0779 12.5133C15.0249 12.6704 14.8781 12.7765 14.7123 12.7778H12.2779V18.6111C12.2779 18.8259 12.1038 19 11.889 19H9.94457C9.72979 19 9.55568 18.8259 9.55568 18.6111V12.7778H8.38901C8.17424 12.7778 8.00012 12.6037 8.00012 12.3889V10.8333C8.00012 10.6186 8.17424 10.4444 8.38901 10.4444H9.55568V8.11111C9.55568 6.39289 10.9486 5 12.6668 5H15.389C15.6038 5 15.7779 5.17411 15.7779 5.38889V6.94444C15.7779 7.15922 15.6038 7.33333 15.389 7.33333Z" fill="#242424"/>
<circle cx="12.0001" cy="12" r="11.5" stroke="black"/>
</svg>
