<svg width="9" height="16" viewBox="0 0 9 16" fill="none" xmlns="http://www.w3.org/2000/svg">
<path fill-rule="evenodd" clip-rule="evenodd" d="M8.44457 2.66667H5.7779C5.28698 2.66667 4.88901 3.06464 4.88901 3.55556V6.22222H8.44457C8.54567 6.21998 8.64154 6.26701 8.70166 6.34834C8.76177 6.42966 8.7786 6.53512 8.74679 6.63111L8.08901 8.58667C8.0284 8.76615 7.86067 8.88748 7.67123 8.88889H4.88901V15.5556C4.88901 15.801 4.69002 16 4.44457 16H2.22234C1.97689 16 1.7779 15.801 1.7779 15.5556V8.88889H0.444566C0.199109 8.88889 0.00012207 8.6899 0.00012207 8.44444V6.66667C0.00012207 6.42121 0.199109 6.22222 0.444566 6.22222H1.7779V3.55556C1.7779 1.59188 3.36978 0 5.33346 0H8.44457C8.69002 0 8.88901 0.198987 8.88901 0.444444V2.22222C8.88901 2.46768 8.69002 2.66667 8.44457 2.66667Z" fill="#242424"/>
</svg>
