<svg width="28" height="28" viewBox="0 0 28 28" fill="none" xmlns="http://www.w3.org/2000/svg">
<circle opacity="0.1" cx="13.9999" cy="14.0001" r="14.0001" fill="black"/>
<path fill-rule="evenodd" clip-rule="evenodd" d="M8.76064 5.88911C8.90898 5.81494 9.05732 5.81494 9.20632 5.88911L17.4471 10.7783L15.22 13.2967L8.76064 5.88911ZM15.8134 13.9632L18.2636 11.2965L21.9761 13.4447C22.1986 13.5189 22.2728 13.6666 22.2728 13.8891V14.1116C22.2728 14.2593 22.1244 14.4818 21.9761 14.5559L18.2636 16.7042L15.8134 13.9632ZM8.16658 6.62987L14.626 13.9633L8.16658 21.2966V6.62987ZM8.76064 22.111L15.22 14.7034L17.4471 17.296L9.20632 22.111C9.13148 22.1477 9.05732 22.1664 8.98315 22.1664C8.90898 22.1664 8.83481 22.1477 8.76064 22.111Z" fill="#1995AD"/>
</svg>
