<svg width="24" height="24" viewBox="0 0 24 24" fill="none" xmlns="http://www.w3.org/2000/svg">
<circle opacity="0.1" cx="12.0001" cy="12" r="12" fill="black"/>
<path fill-rule="evenodd" clip-rule="evenodd" d="M7.50931 5.04768C7.63646 4.98411 7.7636 4.98411 7.89132 5.04768L14.9548 9.23836L13.0459 11.397L7.50931 5.04768ZM13.5545 11.9686L15.6547 9.68279L18.8368 11.5241C19.0275 11.5877 19.0911 11.7143 19.0911 11.905V12.0957C19.0911 12.2223 18.9639 12.413 18.8368 12.4766L15.6547 14.3179L13.5545 11.9686ZM7.00012 5.68281L12.5367 11.9685L7.00012 18.2543V5.68281ZM7.50931 18.9524L13.0459 12.6031L14.9548 14.8253L7.89132 18.9524C7.82718 18.9839 7.7636 19 7.70003 19C7.63646 19 7.57288 18.9839 7.50931 18.9524Z" fill="#1995AD"/>
</svg>
