<svg width="531" height="294" viewBox="0 0 531 294" fill="none" xmlns="http://www.w3.org/2000/svg">
<g clip-path="url(#clip0_10_73)">
<path d="M121.667 256.928C122.98 244.728 129.525 232.708 139.597 228.738C135.625 241.295 135.626 255.07 139.599 267.626C141.147 272.462 143.304 277.655 141.848 282.529C140.943 285.561 138.727 287.882 136.25 289.332C133.773 290.783 131.024 291.475 128.309 292.152L127.775 292.663C123.466 281.422 120.353 269.128 121.667 256.928Z" fill="#F0F0F0"/>
<path d="M139.697 228.969C133.831 236.561 130.186 246.094 129.278 256.216C129.049 258.39 129.118 260.593 129.483 262.743C129.898 264.825 130.786 266.74 132.058 268.29C133.218 269.762 134.553 271.114 135.383 272.886C135.796 273.801 136.038 274.807 136.091 275.837C136.144 276.867 136.009 277.898 135.693 278.863C134.96 281.292 133.515 283.272 132.044 285.151C130.41 287.237 128.685 289.375 127.991 292.141C127.907 292.476 127.462 292.306 127.546 291.971C128.754 287.158 132.798 284.425 134.726 280.09C135.626 278.068 136.004 275.72 135.16 273.584C134.423 271.717 133.047 270.323 131.861 268.843C130.602 267.352 129.678 265.528 129.169 263.529C128.711 261.407 128.568 259.211 128.747 257.034C129.083 252.126 130.086 247.309 131.717 242.76C133.554 237.557 136.148 232.755 139.386 228.562C139.587 228.303 139.896 228.711 139.697 228.969L139.697 228.969Z" fill="white"/>
<path d="M129.404 252.937C127.955 252.53 126.678 251.542 125.801 250.148C124.924 248.754 124.505 247.046 124.618 245.328C124.642 244.98 125.111 245.007 125.087 245.355C124.979 246.954 125.37 248.546 126.188 249.842C127.007 251.138 128.2 252.053 129.551 252.422C129.845 252.503 129.696 253.017 129.404 252.937Z" fill="white"/>
<path d="M131.384 267.632C134.002 265.827 135.935 262.948 136.796 259.569C136.882 259.235 137.327 259.405 137.242 259.739C136.339 263.253 134.323 266.244 131.595 268.116C131.335 268.294 131.126 267.81 131.384 267.632Z" fill="white"/>
<path d="M133.989 238.07C134.521 238.363 135.108 238.498 135.697 238.463C136.286 238.429 136.858 238.226 137.362 237.873C137.62 237.691 137.829 238.176 137.573 238.357C137.014 238.744 136.382 238.967 135.732 239.007C135.082 239.046 134.433 238.902 133.842 238.585C133.784 238.561 133.736 238.512 133.709 238.448C133.681 238.384 133.675 238.311 133.693 238.243C133.713 238.175 133.755 238.119 133.81 238.086C133.866 238.054 133.93 238.048 133.989 238.07Z" fill="white"/>
<path d="M170.297 250.528C170.139 250.647 169.981 250.766 169.822 250.889C167.701 252.501 165.697 254.308 163.829 256.294C163.682 256.445 163.536 256.601 163.393 256.756C158.938 261.597 155.299 267.351 152.662 273.726C151.614 276.264 150.736 278.891 150.033 281.583C149.063 285.3 148.268 289.42 146.348 292.461C146.15 292.781 145.936 293.087 145.706 293.376H128.356C128.316 293.353 128.277 293.335 128.237 293.312L127.544 293.349C127.572 293.207 127.604 293.06 127.631 292.919C127.647 292.836 127.667 292.754 127.683 292.672C127.695 292.617 127.707 292.562 127.715 292.512C127.718 292.493 127.722 292.475 127.726 292.461C127.734 292.411 127.746 292.365 127.754 292.32C127.928 291.501 128.108 290.683 128.293 289.864C128.293 289.859 128.293 289.859 128.296 289.855C129.652 283.602 131.646 277.557 134.234 271.847C134.314 271.678 134.393 271.504 134.48 271.335C135.679 268.807 137.054 266.397 138.593 264.128C139.439 262.889 140.339 261.7 141.289 260.566C143.748 257.641 146.591 255.181 149.712 253.276C155.935 249.481 163.14 248.027 169.791 250.345C169.961 250.405 170.127 250.464 170.297 250.528Z" fill="#F0F0F0"/>
<path d="M170.258 250.782C161.618 252.765 153.739 257.841 147.739 265.291C146.422 266.869 145.329 268.676 144.5 270.646C143.746 272.596 143.458 274.743 143.665 276.865C143.824 278.848 144.186 280.855 143.924 282.848C143.778 283.866 143.446 284.837 142.952 285.696C142.458 286.556 141.812 287.285 141.056 287.836C139.205 289.265 137.02 289.841 134.866 290.318C132.474 290.848 129.983 291.355 127.987 293.08C127.745 293.289 127.478 292.844 127.72 292.635C131.193 289.633 135.846 290.263 139.645 288.143C141.418 287.154 142.944 285.542 143.383 283.25C143.767 281.247 143.396 279.177 143.22 277.17C142.991 275.104 143.204 273.004 143.84 271.055C144.58 269.042 145.611 267.189 146.888 265.576C149.715 261.89 153.025 258.742 156.699 256.244C160.877 253.367 165.451 251.337 170.222 250.242C170.518 250.174 170.552 250.715 170.258 250.782V250.782Z" fill="white"/>
<path d="M149.548 262.761C148.603 261.429 148.098 259.751 148.125 258.029C148.151 256.306 148.707 254.65 149.692 253.357C149.893 253.096 150.253 253.443 150.053 253.705C149.133 254.907 148.615 256.449 148.594 258.053C148.572 259.657 149.047 261.218 149.934 262.453C150.126 262.721 149.74 263.028 149.548 262.761Z" fill="white"/>
<path d="M143.47 275.872C146.501 276.251 149.545 275.296 151.993 273.198C152.236 272.99 152.503 273.436 152.261 273.644C149.709 275.821 146.54 276.807 143.386 276.405C143.086 276.366 143.171 275.834 143.47 275.872Z" fill="white"/>
<path d="M160.957 254.08C161.23 254.684 161.628 255.199 162.116 255.581C162.604 255.963 163.167 256.199 163.753 256.268C164.054 256.302 163.968 256.835 163.669 256.801C163.022 256.722 162.401 256.46 161.861 256.04C161.321 255.619 160.878 255.052 160.572 254.388C160.538 254.329 160.526 254.256 160.537 254.186C160.548 254.116 160.581 254.054 160.631 254.011C160.682 253.971 160.745 253.955 160.806 253.968C160.867 253.981 160.921 254.021 160.957 254.08Z" fill="white"/>
<path d="M433.951 261.242C432.815 250.696 427.157 240.304 418.45 236.872C421.884 247.727 421.883 259.636 418.448 270.491C417.11 274.672 415.245 279.161 416.503 283.374C417.286 285.996 419.202 288.002 421.343 289.256C423.485 290.51 425.861 291.108 428.208 291.694L428.67 292.135C432.395 282.418 435.086 271.789 433.951 261.242Z" fill="#F0F0F0"/>
<path d="M418.363 237.071C423.434 243.634 426.586 251.876 427.37 260.626C427.568 262.507 427.509 264.411 427.193 266.27C426.835 268.069 426.067 269.724 424.967 271.064C423.964 272.338 422.81 273.506 422.093 275.039C421.735 275.829 421.527 276.699 421.481 277.589C421.435 278.48 421.552 279.371 421.825 280.206C422.459 282.305 423.708 284.017 424.98 285.641C426.392 287.445 427.883 289.293 428.483 291.684C428.556 291.974 428.941 291.827 428.868 291.537C427.824 287.377 424.328 285.014 422.66 281.266C421.882 279.518 421.556 277.488 422.285 275.642C422.923 274.028 424.112 272.822 425.137 271.543C426.226 270.254 427.025 268.677 427.465 266.949C427.861 265.114 427.984 263.216 427.829 261.334C427.539 257.091 426.672 252.927 425.262 248.994C423.674 244.496 421.432 240.345 418.632 236.72C418.458 236.496 418.191 236.848 418.363 237.071H418.363Z" fill="white"/>
<path d="M427.261 257.792C428.514 257.44 429.618 256.586 430.376 255.381C431.134 254.176 431.497 252.699 431.399 251.214C431.378 250.913 430.973 250.936 430.994 251.237C431.087 252.62 430.749 253.996 430.042 255.116C429.334 256.236 428.303 257.028 427.134 257.347C426.88 257.417 427.009 257.861 427.261 257.792Z" fill="white"/>
<path d="M425.55 270.496C423.287 268.935 421.616 266.446 420.871 263.526C420.797 263.236 420.412 263.384 420.486 263.673C421.266 266.71 423.009 269.296 425.367 270.915C425.592 271.069 425.773 270.649 425.55 270.496Z" fill="white"/>
<path d="M423.298 244.94C422.838 245.192 422.33 245.309 421.821 245.279C421.312 245.249 420.818 245.074 420.382 244.769C420.159 244.611 419.978 245.031 420.2 245.187C420.682 245.522 421.229 245.715 421.791 245.749C422.353 245.783 422.914 245.658 423.425 245.384C423.475 245.363 423.516 245.321 423.54 245.266C423.564 245.211 423.569 245.148 423.554 245.089C423.537 245.03 423.5 244.981 423.452 244.953C423.404 244.925 423.349 244.921 423.298 244.94L423.298 244.94Z" fill="white"/>
<path d="M391.909 255.709C392.046 255.812 392.183 255.915 392.32 256.022C394.153 257.415 395.886 258.977 397.501 260.695C397.628 260.825 397.754 260.959 397.877 261.094C401.729 265.279 404.875 270.253 407.155 275.765C408.061 277.959 408.82 280.229 409.428 282.556C410.266 285.77 410.954 289.332 412.614 291.961C412.784 292.238 412.969 292.502 413.168 292.752H428.168C428.202 292.732 428.236 292.716 428.271 292.697L428.869 292.728C428.845 292.606 428.818 292.479 428.794 292.357C428.78 292.286 428.763 292.214 428.75 292.143C428.739 292.096 428.729 292.048 428.722 292.005C428.719 291.989 428.715 291.973 428.712 291.961C428.705 291.918 428.695 291.878 428.688 291.839C428.537 291.131 428.382 290.424 428.223 289.716C428.223 289.712 428.223 289.712 428.219 289.708C427.047 284.302 425.324 279.076 423.086 274.14C423.017 273.994 422.949 273.843 422.874 273.697C421.837 271.512 420.648 269.428 419.318 267.467C418.586 266.395 417.809 265.367 416.987 264.387C414.861 261.858 412.403 259.732 409.705 258.085C404.325 254.804 398.096 253.547 392.347 255.551C392.2 255.603 392.056 255.654 391.909 255.709Z" fill="#F0F0F0"/>
<path d="M391.943 255.929C399.412 257.643 406.224 262.032 411.411 268.472C412.549 269.836 413.494 271.398 414.211 273.102C414.863 274.787 415.112 276.644 414.933 278.478C414.795 280.192 414.483 281.927 414.709 283.65C414.836 284.53 415.122 285.369 415.549 286.113C415.977 286.856 416.535 287.486 417.188 287.962C418.788 289.198 420.678 289.696 422.54 290.108C424.607 290.567 426.761 291.005 428.487 292.496C428.696 292.677 428.926 292.292 428.718 292.111C425.715 289.516 421.692 290.06 418.408 288.228C416.875 287.373 415.557 285.979 415.177 283.998C414.845 282.266 415.166 280.476 415.318 278.742C415.515 276.956 415.331 275.14 414.781 273.455C414.142 271.715 413.251 270.113 412.146 268.718C409.703 265.532 406.841 262.81 403.665 260.651C400.053 258.164 396.099 256.409 391.974 255.462C391.719 255.404 391.689 255.871 391.943 255.929Z" fill="white"/>
<path d="M409.847 266.285C410.664 265.133 411.1 263.683 411.077 262.194C411.054 260.704 410.574 259.273 409.722 258.155C409.549 257.93 409.237 258.23 409.411 258.456C410.206 259.495 410.653 260.828 410.672 262.215C410.691 263.602 410.28 264.951 409.513 266.018C409.347 266.251 409.681 266.516 409.847 266.285Z" fill="white"/>
<path d="M415.101 277.62C412.481 277.947 409.85 277.122 407.733 275.308C407.523 275.128 407.293 275.513 407.502 275.693C409.708 277.576 412.448 278.428 415.174 278.08C415.434 278.047 415.36 277.586 415.101 277.62H415.101Z" fill="white"/>
<path d="M399.984 258.78C399.748 259.302 399.403 259.748 398.982 260.078C398.56 260.408 398.073 260.612 397.566 260.672C397.306 260.701 397.38 261.162 397.639 261.132C398.199 261.064 398.735 260.838 399.202 260.474C399.669 260.111 400.052 259.621 400.317 259.047C400.346 258.995 400.357 258.933 400.347 258.872C400.338 258.812 400.309 258.758 400.266 258.721C400.221 258.686 400.167 258.672 400.114 258.683C400.061 258.695 400.014 258.729 399.984 258.78H399.984Z" fill="white"/>
<path d="M465.259 21.3064H112.256C112.121 21.3064 111.99 21.244 111.894 21.133C111.798 21.022 111.744 20.8715 111.744 20.7145C111.744 20.5576 111.798 20.407 111.894 20.296C111.99 20.185 112.121 20.1227 112.256 20.1227H465.259C465.395 20.1227 465.526 20.185 465.622 20.296C465.718 20.407 465.772 20.5576 465.772 20.7145C465.772 20.8715 465.718 21.022 465.622 21.133C465.526 21.244 465.395 21.3064 465.259 21.3064Z" fill="#CACACA"/>
<path d="M123.788 13.0206C126.901 13.0206 129.424 10.1058 129.424 6.51028C129.424 2.91475 126.901 0 123.788 0C120.676 0 118.152 2.91475 118.152 6.51028C118.152 10.1058 120.676 13.0206 123.788 13.0206Z" fill="#3F3D56"/>
<path d="M143.257 13.0206C146.37 13.0206 148.893 10.1058 148.893 6.51028C148.893 2.91475 146.37 0 143.257 0C140.145 0 137.621 2.91475 137.621 6.51028C137.621 10.1058 140.145 13.0206 143.257 13.0206Z" fill="#3F3D56"/>
<path d="M162.726 13.0206C165.839 13.0206 168.362 10.1058 168.362 6.51028C168.362 2.91475 165.839 0 162.726 0C159.614 0 157.09 2.91475 157.09 6.51028C157.09 10.1058 159.614 13.0206 162.726 13.0206Z" fill="#3F3D56"/>
<path d="M453.595 3.98212H439.761C439.49 3.98212 439.229 3.85741 439.037 3.63543C438.845 3.41344 438.737 3.11237 438.737 2.79843C438.737 2.4845 438.845 2.18342 439.037 1.96144C439.229 1.73946 439.49 1.61475 439.761 1.61475H453.595C453.729 1.61439 453.863 1.64475 453.988 1.70407C454.112 1.7634 454.225 1.85053 454.321 1.96048C454.416 2.07043 454.492 2.20104 454.543 2.34483C454.595 2.48861 454.622 2.64276 454.622 2.79843C454.622 2.95411 454.595 3.10825 454.543 3.25204C454.492 3.39583 454.416 3.52644 454.321 3.63639C454.225 3.74634 454.112 3.83347 453.988 3.8928C453.863 3.95212 453.729 3.98248 453.595 3.98212H453.595Z" fill="#3F3D56"/>
<path d="M453.595 8.42097H439.761C439.49 8.42097 439.229 8.29626 439.037 8.07428C438.845 7.85229 438.737 7.55122 438.737 7.23728C438.737 6.92335 438.845 6.62227 439.037 6.40029C439.229 6.1783 439.49 6.05359 439.761 6.05359H453.595C453.866 6.05359 454.127 6.1783 454.319 6.40029C454.511 6.62227 454.619 6.92335 454.619 7.23728C454.619 7.55122 454.511 7.85229 454.319 8.07428C454.127 8.29626 453.866 8.42097 453.595 8.42097H453.595Z" fill="#3F3D56"/>
<path d="M453.595 12.8598H439.761C439.49 12.8598 439.229 12.7351 439.037 12.5131C438.845 12.2911 438.737 11.9901 438.737 11.6761C438.737 11.3622 438.845 11.0611 439.037 10.8391C439.229 10.6171 439.49 10.4924 439.761 10.4924H453.595C453.729 10.4921 453.863 10.5224 453.988 10.5818C454.112 10.6411 454.225 10.7282 454.321 10.8382C454.416 10.9481 454.492 11.0787 454.543 11.2225C454.595 11.3663 454.622 11.5204 454.622 11.6761C454.622 11.8318 454.595 11.9859 454.543 12.1297C454.492 12.2735 454.416 12.4041 454.321 12.5141C454.225 12.624 454.112 12.7112 453.988 12.7705C453.863 12.8298 453.729 12.8602 453.595 12.8598H453.595Z" fill="#3F3D56"/>
<path d="M454.619 46.6857H380.842V97.7837H454.619V46.6857Z" fill="#1995AD"/>
<path d="M439.9 121.258H396.003C395.455 121.257 394.93 121.005 394.543 120.557C394.156 120.109 393.939 119.502 393.939 118.87C393.939 118.237 394.156 117.63 394.543 117.182C394.93 116.734 395.455 116.482 396.003 116.481H439.9C440.449 116.481 440.975 116.733 441.362 117.181C441.75 117.629 441.968 118.236 441.968 118.87C441.968 119.503 441.75 120.111 441.362 120.558C440.975 121.006 440.449 121.258 439.9 121.258Z" fill="#E4E4E4"/>
<path d="M432.823 113.082H403.081C402.809 113.083 402.54 113.021 402.289 112.901C402.037 112.782 401.809 112.606 401.617 112.384C401.424 112.162 401.272 111.899 401.168 111.609C401.063 111.319 401.01 111.008 401.01 110.694C401.01 110.38 401.063 110.069 401.168 109.779C401.272 109.489 401.424 109.225 401.617 109.003C401.809 108.782 402.037 108.606 402.289 108.486C402.54 108.366 402.809 108.305 403.081 108.305H432.823C433.095 108.305 433.364 108.366 433.615 108.486C433.866 108.606 434.095 108.782 434.287 109.003C434.479 109.225 434.632 109.489 434.736 109.779C434.84 110.069 434.894 110.38 434.894 110.694C434.894 111.008 434.84 111.319 434.736 111.609C434.632 111.899 434.479 112.162 434.287 112.384C434.095 112.606 433.866 112.782 433.615 112.901C433.364 113.021 433.095 113.083 432.823 113.082Z" fill="#E4E4E4"/>
<path d="M454.619 139.605H380.842V190.703H454.619V139.605Z" fill="#F0F0F0"/>
<path d="M439.9 214.177H396.003C395.455 214.177 394.929 213.926 394.541 213.478C394.153 213.03 393.936 212.422 393.936 211.789C393.936 211.156 394.153 210.548 394.541 210.1C394.929 209.652 395.455 209.401 396.003 209.401H439.9C440.449 209.401 440.975 209.652 441.362 210.1C441.75 210.548 441.968 211.156 441.968 211.789C441.968 212.422 441.75 213.03 441.362 213.478C440.975 213.926 440.449 214.177 439.9 214.177Z" fill="#E4E4E4"/>
<path d="M432.823 206.002H403.081C402.532 206.002 402.007 205.75 401.619 205.302C401.231 204.854 401.013 204.247 401.013 203.613C401.013 202.98 401.231 202.372 401.619 201.924C402.007 201.476 402.532 201.225 403.081 201.225H432.823C433.371 201.225 433.897 201.476 434.285 201.924C434.673 202.372 434.89 202.98 434.89 203.613C434.89 204.247 434.673 204.854 434.285 205.302C433.897 205.75 433.371 206.002 432.823 206.002Z" fill="#E4E4E4"/>
<path d="M343.01 82.5122H120.312C119.764 82.5122 119.238 82.2606 118.85 81.8127C118.462 81.3647 118.245 80.7572 118.245 80.1238C118.245 79.4903 118.462 78.8828 118.85 78.4349C119.238 77.9869 119.764 77.7353 120.312 77.7353H343.01C343.558 77.7353 344.084 77.9869 344.472 78.4349C344.86 78.8828 345.078 79.4903 345.078 80.1238C345.078 80.7572 344.86 81.3647 344.472 81.8127C344.084 82.2606 343.558 82.5122 343.01 82.5122Z" fill="#E4E4E4"/>
<path d="M343.01 100.608H120.312C119.764 100.608 119.238 100.357 118.85 99.9088C118.462 99.4609 118.245 98.8534 118.245 98.22C118.245 97.5865 118.462 96.979 118.85 96.5311C119.238 96.0831 119.764 95.8315 120.312 95.8315H343.01C343.558 95.8315 344.084 96.0831 344.472 96.5311C344.86 96.979 345.078 97.5865 345.078 98.22C345.078 98.8534 344.86 99.4609 344.472 99.9088C344.084 100.357 343.558 100.608 343.01 100.608Z" fill="#E4E4E4"/>
<path d="M343.01 118.705H120.312C119.764 118.705 119.238 118.453 118.85 118.005C118.462 117.557 118.245 116.95 118.245 116.316C118.245 115.683 118.462 115.075 118.85 114.627C119.238 114.179 119.764 113.928 120.312 113.928H343.01C343.558 113.928 344.084 114.179 344.472 114.627C344.86 115.075 345.078 115.683 345.078 116.316C345.078 116.95 344.86 117.557 344.472 118.005C344.084 118.453 343.558 118.705 343.01 118.705Z" fill="#E4E4E4"/>
<path d="M343.01 136.801H120.312C119.764 136.801 119.238 136.549 118.85 136.101C118.462 135.653 118.245 135.046 118.245 134.412C118.245 133.779 118.462 133.171 118.85 132.723C119.238 132.275 119.764 132.024 120.312 132.024H343.01C343.558 132.024 344.084 132.275 344.472 132.723C344.86 133.171 345.078 133.779 345.078 134.412C345.078 135.046 344.86 135.653 344.472 136.101C344.084 136.549 343.558 136.801 343.01 136.801Z" fill="#E4E4E4"/>
<path d="M343.01 172.993H120.312C119.764 172.993 119.238 172.741 118.85 172.294C118.462 171.846 118.245 171.238 118.245 170.605C118.245 169.971 118.462 169.364 118.85 168.916C119.238 168.468 119.764 168.216 120.312 168.216H343.01C343.558 168.216 344.084 168.468 344.472 168.916C344.86 169.364 345.078 169.971 345.078 170.605C345.078 171.238 344.86 171.846 344.472 172.294C344.084 172.741 343.558 172.993 343.01 172.993Z" fill="#E4E4E4"/>
<path d="M343.01 191.089H120.312C119.764 191.089 119.238 190.838 118.85 190.39C118.462 189.942 118.245 189.334 118.245 188.701C118.245 188.067 118.462 187.46 118.85 187.012C119.238 186.564 119.764 186.312 120.312 186.312H343.01C343.558 186.312 344.084 186.564 344.472 187.012C344.86 187.46 345.078 188.067 345.078 188.701C345.078 189.334 344.86 189.942 344.472 190.39C344.084 190.838 343.558 191.089 343.01 191.089Z" fill="#E4E4E4"/>
<path d="M306.222 64.3523H157.1C156.828 64.3528 156.559 64.2914 156.308 64.1716C156.056 64.0518 155.828 63.8759 155.636 63.6541C155.443 63.4322 155.291 63.1688 155.187 62.8787C155.083 62.5887 155.029 62.2778 155.029 61.9638C155.029 61.6498 155.083 61.3389 155.187 61.0489C155.291 60.7588 155.443 60.4954 155.636 60.2735C155.828 60.0517 156.056 59.8758 156.308 59.756C156.559 59.6362 156.828 59.5748 157.1 59.5753H306.222C306.494 59.5748 306.763 59.6362 307.015 59.756C307.266 59.8758 307.494 60.0517 307.686 60.2735C307.879 60.4954 308.031 60.7588 308.136 61.0489C308.24 61.3389 308.293 61.6498 308.293 61.9638C308.293 62.2778 308.24 62.5887 308.136 62.8787C308.031 63.1688 307.879 63.4322 307.686 63.6541C307.494 63.8759 307.266 64.0518 307.015 64.1716C306.763 64.2914 306.494 64.3528 306.222 64.3523Z" fill="#E4E4E4"/>
<path d="M363.361 288.784H367.666L369.715 269.6L363.361 269.601L363.361 288.784Z" fill="#FFB6B6"/>
<path d="M362.263 287.16L370.742 287.16H370.742C372.175 287.16 373.55 287.818 374.563 288.988C375.576 290.159 376.146 291.747 376.146 293.402V293.605L362.263 293.605L362.263 287.16Z" fill="#2F2E41"/>
<path d="M341.355 288.784H345.66L347.709 269.6L341.354 269.601L341.355 288.784Z" fill="#FFB6B6"/>
<path d="M340.257 287.16L348.736 287.16H348.736C350.169 287.16 351.544 287.818 352.557 288.988C353.57 290.159 354.14 291.747 354.14 293.402V293.605L340.257 293.605L340.257 287.16Z" fill="#2F2E41"/>
<path d="M391.632 75.007C391.632 74.1722 391.472 73.3477 391.164 72.5928C390.855 71.838 390.406 71.1714 389.848 70.6412C389.289 70.111 388.636 69.7303 387.936 69.5265C387.235 69.3226 386.504 69.3007 385.795 69.4623C385.086 69.624 384.417 69.9651 383.835 70.4611C383.254 70.9572 382.775 71.5959 382.433 72.3313C382.091 73.0667 381.895 73.8805 381.858 74.7142C381.821 75.5478 381.944 76.3807 382.219 77.1527L372.324 95.2361L366.165 109.576L371.248 114.787L375.159 110.031L387.953 80.4744C389.004 80.1644 389.937 79.4588 390.603 78.4688C391.269 77.4788 391.631 76.2609 391.632 75.007Z" fill="#FFB6B6"/>
<path d="M340.284 134.323L330.585 132.586L328.275 152.855L315.687 184.145C314.866 184.736 314.216 185.595 313.817 186.614C313.419 187.632 313.29 188.764 313.449 189.867C313.607 190.969 314.045 191.993 314.706 192.808C315.368 193.623 316.224 194.193 317.167 194.447C318.109 194.7 319.095 194.625 320 194.231C320.906 193.837 321.69 193.142 322.253 192.233C322.816 191.324 323.134 190.243 323.166 189.126C323.197 188.009 322.941 186.907 322.43 185.958L335.592 158.504L340.284 134.323Z" fill="#FFB6B6"/>
<path d="M345.659 168.088C345.659 168.088 337.13 177.198 338.214 200.106L340.603 235.494L340 284.824L348.76 284.029L356.413 201.358L363.749 235.253L361.115 280.404L369.553 280.631L378.419 229.604L376.318 191.779L372.788 168.088H345.659Z" fill="#2F2E41"/>
<path d="M354.783 114.739L334.407 121.329L344.768 157.188L343.219 170.906L374.636 171.141L367.36 144.626C367.36 144.626 371.443 134.927 366.781 128.128L354.783 114.739Z" fill="#1995AD"/>
<path d="M352.338 120.388L354.783 114.739C354.783 114.739 354.704 113.319 360.449 112.617L367.19 104.877L373.359 111.981L362.934 129.803L352.338 120.388Z" fill="#1995AD"/>
<path d="M342.558 126.037C342.558 126.037 335.222 116.622 331.147 121.329C327.072 126.037 329.161 141.006 329.161 141.006L341.854 143.281L342.558 126.037Z" fill="#1995AD"/>
<path d="M346.278 89.8456C358.77 89.9103 358.769 111.852 346.278 111.915C333.786 111.85 333.787 89.9083 346.278 89.8456Z" fill="#FFB6B6"/>
<path d="M347.669 100.151C349.357 101.3 351.112 102.474 353.06 102.721C355.008 102.967 357.214 102.02 357.995 99.9441C358.24 99.2248 358.369 98.4604 358.378 97.6878C358.549 93.7452 357.368 89.8835 355.091 86.9402C353.948 85.4974 352.55 84.3564 350.99 83.5948C349.431 82.8332 347.748 82.469 346.056 82.527C342.828 82.6891 339.845 84.4542 336.981 86.1809C334.347 87.7689 331.566 89.5186 330.135 92.5264C328.014 96.9833 329.56 102.44 329.972 107.504C330.261 111.279 329.888 115.084 328.876 118.689C327.865 122.295 326.234 125.628 324.083 128.49L341.857 130.436C344.02 130.672 346.226 130.906 348.346 130.359C350.176 129.887 351.86 128.851 353.221 127.362C354.581 125.872 355.567 123.985 356.073 121.9C356.579 119.815 356.586 117.611 356.094 115.521C355.602 113.432 354.629 111.536 353.279 110.034C350.756 107.228 346.699 105.242 346.599 101.198" fill="#2F2E41"/>
<path d="M480.129 288.325H475.413L473.17 267.314H480.13L480.129 288.325Z" fill="#9F616A"/>
<path d="M481.332 293.605L466.127 293.605V293.383C466.127 291.57 466.75 289.831 467.86 288.549C468.97 287.267 470.475 286.546 472.045 286.546H472.045L481.332 286.547L481.332 293.605Z" fill="#2F2E41"/>
<path d="M523.979 288.325H519.263L517.02 267.314H523.979L523.979 288.325Z" fill="#9F616A"/>
<path d="M525.181 293.605L509.976 293.605V293.383C509.976 291.57 510.6 289.831 511.709 288.549C512.819 287.267 514.325 286.546 515.894 286.546H515.895L525.181 286.547L525.181 293.605Z" fill="#2F2E41"/>
<path d="M478.25 181.697C478.25 181.697 474.292 194.108 474.857 199.334C475.422 204.559 470.899 241.138 471.464 244.404C472.03 247.67 470.899 264 471.464 266.613C472.03 269.226 469.877 272.347 471.008 274.96C472.139 277.572 473.726 282.943 473.726 282.943L481.077 282.29L482.208 275.105C482.208 275.105 485.601 274.452 485.035 270.532C484.47 266.613 487.862 240.485 487.862 240.485L497.475 203.906L511.046 237.219C511.046 237.219 511.612 260.734 513.308 263.347C515.004 265.96 511.612 273.145 513.308 275.758C515.004 278.371 516.701 282.943 516.701 282.943H525.182V277.718C525.182 277.718 530.272 274.452 525.182 264.654L521.744 205.812L518.351 179.031L478.25 181.697Z" fill="#2F2E41"/>
<path d="M499.329 99.5636C505.162 99.5636 509.89 94.1014 509.89 87.3634C509.89 80.6255 505.162 75.1633 499.329 75.1633C493.496 75.1633 488.768 80.6255 488.768 87.3634C488.768 94.1014 493.496 99.5636 499.329 99.5636Z" fill="#A0616A"/>
<path d="M490.341 86.5218C491.087 88.7214 491.832 90.9208 492.577 93.1203C493.493 95.8243 494.543 98.7172 496.69 100.226C499.342 102.089 502.882 101.181 505.447 99.1627C507.754 97.3474 509.525 94.7601 510.522 91.7483C511.519 88.7365 511.694 85.4445 511.024 82.3143C510.354 79.1842 508.871 76.3659 506.774 74.2379C504.676 72.11 502.066 70.7744 499.292 70.4105L499.186 72.619L496.84 70.3474C496.667 70.6913 496.428 70.9853 496.142 71.2074C495.856 71.4295 495.53 71.5738 495.189 71.6295C494.848 71.6853 494.5 71.651 494.172 71.5292C493.844 71.4075 493.544 71.2015 493.295 70.9266C493.911 72.4023 493.2 74.202 492.173 75.3325C490.911 76.7211 487.301 78.3901 487.451 80.8726C487.551 82.5292 489.76 84.805 490.341 86.5218Z" fill="#2F2E41"/>
<path d="M528.401 199.744C528.765 199.117 529.005 198.405 529.105 197.659C529.205 196.912 529.162 196.15 528.98 195.425C528.797 194.699 528.479 194.029 528.048 193.462C527.617 192.894 527.083 192.442 526.484 192.139L526.695 180.336L520.518 178.439L520.423 195.111C520.047 196.306 520.065 197.619 520.472 198.8C520.879 199.982 521.647 200.95 522.63 201.521C523.613 202.092 524.744 202.227 525.808 201.899C526.871 201.572 527.794 200.805 528.401 199.744V199.744Z" fill="#9F616A"/>
<path d="M507.174 107.104C507.174 107.104 498.99 102.377 491.261 105.528C483.531 108.68 479.439 112.356 479.439 112.356L484.44 142.82L477.62 183.788C477.62 183.788 512.63 180.636 515.813 183.788C518.996 186.939 518.996 180.111 518.996 180.111L516.268 141.244L521.269 116.558L507.174 107.104Z" fill="#3F3D56"/>
<path d="M472.632 200.443C473.134 199.959 473.537 199.354 473.815 198.67C474.092 197.986 474.236 197.24 474.237 196.485C474.238 195.73 474.096 194.984 473.82 194.299C473.544 193.614 473.142 193.008 472.641 192.522L475.712 181.263L470.244 177.438L466.101 193.409C465.45 194.434 465.148 195.7 465.251 196.966C465.355 198.232 465.856 199.41 466.661 200.277C467.466 201.144 468.519 201.64 469.619 201.67C470.72 201.701 471.791 201.264 472.632 200.443Z" fill="#9F616A"/>
<path d="M482.622 112.356H479.439C479.439 112.356 474.438 116.033 474.438 121.285C474.438 126.537 467.163 187.989 467.163 187.989L474.892 189.565L481.712 146.496L486.714 134.941L482.622 112.356Z" fill="#3F3D56"/>
<path d="M512.63 116.558H521.269C521.269 116.558 523.997 119.709 525.361 127.063C526.725 134.416 528.089 163.304 528.089 163.304L527.18 189.565H520.36L519.451 155.425L514.904 133.365L512.63 116.558Z" fill="#3F3D56"/>
<path d="M112.186 151.511C111.968 151.633 111.758 151.774 111.56 151.935L91.3344 142.802L90.5327 136.778L82.5053 136.988L83.0275 147.81C83.0697 148.685 83.3562 149.52 83.8441 150.19C84.3321 150.86 84.995 151.329 85.7334 151.527L109.8 157.977C110.094 159 110.651 159.896 111.396 160.545C112.141 161.194 113.04 161.565 113.973 161.61C114.905 161.654 115.828 161.37 116.617 160.794C117.406 160.218 118.025 159.378 118.391 158.387C118.757 157.395 118.853 156.298 118.666 155.241C118.479 154.185 118.018 153.219 117.344 152.473C116.671 151.726 115.816 151.234 114.895 151.063C113.973 150.891 113.029 151.047 112.186 151.511H112.186Z" fill="#9F616A"/>
<path d="M81.8188 287.594L87.1872 287.594L89.7406 263.675H81.8177L81.8188 287.594Z" fill="#9F616A"/>
<path d="M80.4494 285.57L91.0215 285.569H91.0219C92.8087 285.569 94.5223 286.389 95.7858 287.849C97.0492 289.308 97.7591 291.288 97.7592 293.352V293.605L80.4497 293.606L80.4494 285.57Z" fill="#2F2E41"/>
<path d="M55.984 287.594L61.3524 287.594L63.9064 263.675H55.9835L55.984 287.594Z" fill="#9F616A"/>
<path d="M54.6148 285.57L65.1869 285.569H65.1873C66.9741 285.569 68.6877 286.389 69.9512 287.849C71.2146 289.308 71.9245 291.288 71.9246 293.352V293.605L54.6151 293.606L54.6148 285.57Z" fill="#2F2E41"/>
<path d="M59.097 105.229C57.5681 97.9365 56.2729 89.7117 59.1562 82.9956C61.1567 78.3357 68.5575 76.7664 72.8 78.4452C77.0425 80.124 80.1098 84.6787 81.4588 89.6448C82.8078 94.6109 82.6511 99.9622 82.0631 105.125C74.2606 104.952 66.4582 104.778 59.097 105.229Z" fill="#2F2E41"/>
<path d="M72.2639 105.227C77.2889 105.227 81.3624 100.521 81.3624 94.7161C81.3624 88.9114 77.2889 84.2057 72.2639 84.2057C67.239 84.2057 63.1654 88.9114 63.1654 94.7161C63.1654 100.521 67.239 105.227 72.2639 105.227Z" fill="#9F616A"/>
<path d="M61.141 92.5511C61.1121 90.7822 61.3913 89.0245 61.962 87.3827C62.5327 85.7408 63.3832 84.2482 64.4632 82.9936C65.5431 81.7389 66.8303 80.7479 68.2483 80.0793C69.6663 79.4106 71.1862 79.0781 72.7177 79.1014C74.2492 79.1247 75.761 79.5034 77.1632 80.215C78.5655 80.9266 79.8297 81.9565 80.8806 83.2436C81.9315 84.5307 82.7477 86.0486 83.2807 87.7073C83.8137 89.366 84.0527 91.1315 83.9834 92.899C76.1958 92.918 68.4081 92.9371 61.141 92.5511Z" fill="#2F2E41"/>
<path d="M64.7129 144.003L60.9077 151.329C60.9077 151.329 50.4867 173.906 51.1065 192.621L53.4127 215.931L50.8818 221.652L52.5759 231.716L49.4297 238.926L55.117 273.732L55.359 281.28H64.5555L64.0715 273.592L67.9437 239.684L74.478 203.48L77.8662 234.732L76.6561 242.56L78.2292 249.13L80.4073 269.398L80.6493 279.183L88.9987 280.301L92.1449 244.098L93.96 226.824L84.2325 150.233L64.7129 144.003Z" fill="#2F2E41"/>
<path d="M63.506 108.629L57.8409 111.408L54.6593 126.62L61.3584 146.438L58.854 156.34C66.4349 171.32 75.8182 173.497 86.8598 163.89C84.5229 156.311 84.8605 148.518 87.1893 140.565C87.1893 140.565 92.9977 134.317 88.9402 126.194L85.0698 114.058L80.2778 111.29L63.506 108.629Z" fill="#CBCBCB"/>
<path d="M83.9537 116.704L85.2397 113.945C85.2397 113.945 88.6313 114.534 90.0164 119.25C91.4015 123.967 91.7617 143.02 91.7617 143.02L84.5048 143.444L83.9537 116.704Z" fill="#CBCBCB"/>
<path d="M261.136 116.48L45.4847 180.682C44.9545 180.837 44.3926 180.744 43.922 180.422C43.4515 180.099 43.1106 179.575 42.9741 178.963C42.8376 178.351 42.9166 177.702 43.1937 177.157C43.4708 176.612 43.9235 176.216 44.4527 176.056L260.104 111.855C260.367 111.775 260.641 111.757 260.911 111.8C261.18 111.843 261.44 111.948 261.674 112.107C261.909 112.266 262.114 112.478 262.278 112.729C262.441 112.98 262.56 113.265 262.628 113.57C262.696 113.874 262.711 114.191 262.673 114.502C262.635 114.813 262.544 115.113 262.405 115.383C262.267 115.653 262.083 115.889 261.865 116.078C261.648 116.266 261.4 116.403 261.136 116.48Z" fill="#1995AD"/>
<path d="M55.5247 181.371C56.1404 181.017 56.6814 180.511 57.1096 179.89C57.5379 179.268 57.8429 178.546 58.0033 177.773C58.1636 177.001 58.1754 176.197 58.0378 175.419C57.9002 174.64 57.6166 173.906 57.2068 173.268L60.7243 133.541H53.1227L50.3273 172.333C49.4451 173.199 48.8687 174.409 48.7071 175.733C48.5456 177.058 48.8102 178.404 49.4508 179.518C50.0915 180.633 51.0636 181.436 52.1831 181.778C53.3025 182.119 54.4915 181.974 55.5247 181.371V181.371Z" fill="#9F616A"/>
<path d="M62.4705 115.902L59.8066 111.551C59.8066 111.551 55.1218 107.882 52.7335 116.326C50.3451 124.77 50.7126 140.414 50.7126 140.414L59.8066 144.764L62.4705 115.902Z" fill="#CBCBCB"/>
<path d="M206.35 294H0.540183C0.396918 294 0.25952 293.934 0.158216 293.817C0.0569116 293.7 0 293.541 0 293.376C0 293.21 0.0569116 293.052 0.158216 292.935C0.25952 292.818 0.396918 292.752 0.540183 292.752H206.35C206.493 292.752 206.631 292.818 206.732 292.935C206.833 293.052 206.89 293.21 206.89 293.376C206.89 293.541 206.833 293.7 206.732 293.817C206.631 293.934 206.493 294 206.35 294Z" fill="#CACACA"/>
<path d="M530.46 294H324.65C324.507 294 324.369 293.934 324.268 293.817C324.167 293.7 324.11 293.541 324.11 293.376C324.11 293.21 324.167 293.052 324.268 292.935C324.369 292.818 324.507 292.752 324.65 292.752H530.46C530.603 292.752 530.741 292.818 530.842 292.935C530.943 293.052 531 293.21 531 293.376C531 293.541 530.943 293.7 530.842 293.817C530.741 293.934 530.603 294 530.46 294Z" fill="#CACACA"/>
<g opacity="0.12" filter="url(#filter0_f_10_73)">
<circle cx="386" cy="278" r="135" fill="#1995AD"/>
</g>
<g opacity="0.5" filter="url(#filter1_f_10_73)">
<circle cx="471" cy="362" r="60" fill="#FFB6B6"/>
</g>
<g opacity="0.2" filter="url(#filter2_f_10_73)">
<circle cx="311" cy="204" r="60" fill="#2F2E41"/>
</g>
</g>
<defs>
<filter id="filter0_f_10_73" x="151" y="43" width="470" height="470" filterUnits="userSpaceOnUse" color-interpolation-filters="sRGB">
<feFlood flood-opacity="0" result="BackgroundImageFix"/>
<feBlend mode="normal" in="SourceGraphic" in2="BackgroundImageFix" result="shape"/>
<feGaussianBlur stdDeviation="50" result="effect1_foregroundBlur_10_73"/>
</filter>
<filter id="filter1_f_10_73" x="311" y="202" width="320" height="320" filterUnits="userSpaceOnUse" color-interpolation-filters="sRGB">
<feFlood flood-opacity="0" result="BackgroundImageFix"/>
<feBlend mode="normal" in="SourceGraphic" in2="BackgroundImageFix" result="shape"/>
<feGaussianBlur stdDeviation="50" result="effect1_foregroundBlur_10_73"/>
</filter>
<filter id="filter2_f_10_73" x="151" y="44" width="320" height="320" filterUnits="userSpaceOnUse" color-interpolation-filters="sRGB">
<feFlood flood-opacity="0" result="BackgroundImageFix"/>
<feBlend mode="normal" in="SourceGraphic" in2="BackgroundImageFix" result="shape"/>
<feGaussianBlur stdDeviation="50" result="effect1_foregroundBlur_10_73"/>
</filter>
<clipPath id="clip0_10_73">
<rect width="531" height="294" fill="white"/>
</clipPath>
</defs>
</svg>
