<svg width="24" height="24" viewBox="0 0 24 24" fill="none" xmlns="http://www.w3.org/2000/svg">
<circle cx="12.0001" cy="12" r="11.5" stroke="black"/>
<path fill-rule="evenodd" clip-rule="evenodd" d="M15.1669 9.49985C14.7993 9.49985 14.5003 9.20081 14.5003 8.83325C14.5003 8.46568 14.7993 8.16665 15.1669 8.16665C15.5345 8.16665 15.8335 8.46568 15.8335 8.83325C15.8335 9.20081 15.5345 9.49985 15.1669 9.49985ZM12.0001 10.1664C10.989 10.1664 10.1665 10.9889 10.1665 12C10.1665 13.011 10.989 13.8336 12.0001 13.8336C13.0112 13.8336 13.8337 13.011 13.8337 12C13.8337 10.9889 13.0112 10.1664 12.0001 10.1664ZM12.0001 15C10.3459 15 9.00012 13.6542 9.00012 12C9.00012 10.3458 10.3459 9 12.0001 9H12.0067C12.8059 9 13.5576 9.31131 14.1235 9.8766C14.6906 10.4443 15.0019 11.1984 15.0001 12C15.0001 13.6542 13.6543 15 12.0001 15ZM9.3337 7.16638C8.1429 7.17058 7.1707 8.14278 7.1665 9.33358V14.6664C7.1707 15.8572 8.1429 16.8294 9.3337 16.8336H14.6665C15.8573 16.8294 16.8295 15.8572 16.8337 14.6664V9.33358C16.8295 8.14278 15.8573 7.17058 14.6665 7.16638H9.3337ZM14.6665 18H9.33372C7.49557 18 6.00012 16.5046 6.00012 14.6664V9.3336C6.00012 7.49545 7.49557 6 9.33372 6H14.6665C16.5047 6 18.0001 7.49545 18.0001 9.3336V14.6664C18.0001 16.5046 16.5047 18 14.6665 18Z" fill="#242424"/>
</svg>
