<svg width="16" height="16" viewBox="0 0 16 16" fill="none" xmlns="http://www.w3.org/2000/svg">
<path fill-rule="evenodd" clip-rule="evenodd" d="M12.2225 4.66651C11.7324 4.66651 11.3337 4.2678 11.3337 3.77771C11.3337 3.28762 11.7324 2.88891 12.2225 2.88891C12.7126 2.88891 13.1113 3.28762 13.1113 3.77771C13.1113 4.2678 12.7126 4.66651 12.2225 4.66651ZM8.00007 5.55531C6.652 5.55531 5.55527 6.65204 5.55527 8.00011C5.55527 9.34818 6.652 10.4449 8.00007 10.4449C9.34814 10.4449 10.4449 9.34818 10.4449 8.00011C10.4449 6.65204 9.34814 5.55531 8.00007 5.55531ZM8.00012 12C5.79451 12 4.00012 10.2056 4.00012 8C4.00012 5.79439 5.79451 4 8.00012 4H8.00892C9.07447 4 10.0768 4.41508 10.8313 5.1688C11.5874 5.92571 12.0025 6.93118 12.0001 8C12.0001 10.2056 10.2057 12 8.00012 12ZM4.44487 1.55531C2.85713 1.56091 1.56087 2.85718 1.55527 4.44491V11.5553C1.56087 13.143 2.85713 14.4393 4.44487 14.4449H11.5553C13.143 14.4393 14.4393 13.143 14.4449 11.5553V4.44491C14.4393 2.85718 13.143 1.56091 11.5553 1.55531H4.44487ZM11.5553 16H4.44492C1.99405 16 0.00012207 14.0061 0.00012207 11.5552V4.4448C0.00012207 1.99393 1.99405 0 4.44492 0H11.5553C14.0062 0 16.0001 1.99393 16.0001 4.4448V11.5552C16.0001 14.0061 14.0062 16 11.5553 16Z" fill="#242424"/>
</svg>
