<svg width="28" height="28" viewBox="0 0 28 28" fill="none" xmlns="http://www.w3.org/2000/svg">
<circle opacity="0.1" cx="13.9999" cy="14" r="14" fill="black"/>
<path fill-rule="evenodd" clip-rule="evenodd" d="M7.84344 17.7416C7.42198 17.7416 6.99988 17.3252 6.99988 16.8394C6.99988 16.423 7.35142 16.0066 7.84344 16.0066H10.4453L13.0466 11.5645L11.7809 9.3431C11.711 9.3431 11.711 9.2738 11.711 9.2738C11.4294 8.78807 11.6404 8.30171 12.0625 8.09382C12.484 7.88529 13.0466 8.02452 13.2576 8.51024L14.0313 9.82883L14.8043 8.51024L14.8748 8.44094C15.0859 8.02452 15.6485 7.95459 16.0699 8.16312C16.492 8.37101 16.6325 8.92667 16.3516 9.3431L12.4141 16.0066H13.8202C14.3123 16.0066 14.7343 16.2844 14.9454 16.7008L15.5779 17.7416H7.84344ZM8.7575 20.3794C8.33603 20.1708 8.19491 19.6158 8.47652 19.1994L8.54645 19.1301C8.7575 18.783 9.10904 18.5744 9.46058 18.5744H10.8667L10.0232 20.0322L9.95323 20.1015C9.81779 20.3687 9.53807 20.4934 9.24323 20.4934C9.07817 20.4934 8.9087 20.4543 8.7575 20.3794ZM18.0387 20.1016L15.1565 15.1737C14.8043 14.5488 14.8043 13.7159 15.1565 13.091L15.5779 12.3973L17.6872 16.0066H20.2185C20.6406 16.0066 21.0627 16.423 20.9921 16.9087C20.9921 17.3252 20.6406 17.7416 20.1486 17.7416H18.6718L19.586 19.2687C19.6559 19.2687 19.6559 19.338 19.6559 19.338C19.8669 19.7544 19.6559 20.3101 19.2344 20.518C19.1213 20.5739 18.9981 20.5998 18.8742 20.5998C18.5361 20.5998 18.1932 20.4064 18.0387 20.1016Z" fill="#1995AD"/>
</svg>
