<svg width="28" height="28" viewBox="0 0 28 28" fill="none" xmlns="http://www.w3.org/2000/svg">
<circle opacity="0.1" cx="14" cy="14" r="14" fill="black"/>
<path fill-rule="evenodd" clip-rule="evenodd" d="M7.84357 17.7416C7.4221 17.7416 7 17.3252 7 16.8394C7 16.423 7.35154 16.0066 7.84357 16.0066H10.4455L13.0467 11.5645L11.781 9.3431C11.7111 9.3431 11.7111 9.2738 11.7111 9.2738C11.4295 8.78807 11.6406 8.30171 12.0627 8.09382C12.4841 7.88529 13.0467 8.02452 13.2578 8.51024L14.0314 9.82883L14.8044 8.51024L14.875 8.44094C15.086 8.02452 15.6486 7.95459 16.0701 8.16312C16.4922 8.37101 16.6327 8.92667 16.3517 9.3431L12.4142 16.0066H13.8203C14.3124 16.0066 14.7345 16.2844 14.9455 16.7008L15.578 17.7416H7.84357ZM8.75762 20.3794C8.33616 20.1708 8.19504 19.6158 8.47664 19.1994L8.54657 19.1301C8.75762 18.783 9.10916 18.5744 9.4607 18.5744H10.8669L10.0233 20.0322L9.95336 20.1015C9.81791 20.3687 9.53819 20.4934 9.24335 20.4934C9.07829 20.4934 8.90882 20.4543 8.75762 20.3794ZM18.0388 20.1016L15.1566 15.1737C14.8044 14.5488 14.8044 13.7159 15.1566 13.091L15.5781 12.3973L17.6873 16.0066H20.2186C20.6407 16.0066 21.0628 16.423 20.9922 16.9087C20.9922 17.3252 20.6407 17.7416 20.1487 17.7416H18.672L19.5861 19.2687C19.656 19.2687 19.656 19.338 19.656 19.338C19.8671 19.7544 19.656 20.3101 19.2346 20.518C19.1214 20.5739 18.9982 20.5998 18.8744 20.5998C18.5362 20.5998 18.1933 20.4064 18.0388 20.1016Z" fill="#1995AD"/>
</svg>
