<svg width="216" height="24" viewBox="0 0 216 24" fill="none" xmlns="http://www.w3.org/2000/svg">
<path d="M51.0959 18.4871H35.9445L32.6652 23.3771C32.5267 23.5739 32.3424 23.7341 32.1282 23.8438C31.9541 23.9382 31.7607 23.9914 31.5628 23.9992C31.1793 24.0036 30.8073 23.8679 30.5167 23.6176C30.374 23.5048 30.259 23.3608 30.1807 23.1967C30.1023 23.0325 30.0627 22.8525 30.0648 22.6706C30.068 22.4128 30.136 22.16 30.2626 21.9354L41.5977 4.94633C41.814 4.61433 42.1106 4.34224 42.46 4.15519C42.7782 3.98799 43.1323 3.90063 43.4919 3.90063C43.8514 3.90063 44.2055 3.98799 44.5238 4.15519C44.868 4.33881 45.1562 4.61219 45.3577 4.94633L56.7495 21.9071C56.8545 22.023 56.9274 22.1643 56.9613 22.317C56.9867 22.4333 57.0009 22.5517 57.0036 22.6706C57.0109 22.85 56.9747 23.0285 56.8982 23.191C56.8216 23.3534 56.7071 23.495 56.5641 23.6036C56.2687 23.8306 55.9048 23.9501 55.5324 23.9425C55.3208 23.9367 55.1131 23.8836 54.9247 23.787C54.6991 23.6766 54.501 23.5171 54.3449 23.3203L51.0959 18.4871ZM37.5 16.0841H49.4577L43.8293 7.08965C43.7994 7.04195 43.758 7.00257 43.7088 6.97516C43.6597 6.94776 43.6044 6.93322 43.5481 6.9329C43.4918 6.93258 43.4363 6.94649 43.3869 6.97333C43.3374 7.00018 43.2955 7.0391 43.2651 7.08646L37.5 16.0841Z" fill="black"/>
<path d="M83.6284 22.0485C83.6501 22.3178 83.6134 22.5885 83.5207 22.8422C83.428 23.096 83.2816 23.3267 83.0914 23.5185C82.7529 23.8309 82.3081 24.0023 81.8475 23.998C81.6066 23.9955 81.3678 23.9524 81.1411 23.8706C80.8839 23.7783 80.6514 23.6278 80.4618 23.431L63.5774 8.32754C63.5294 8.28455 63.47 8.25638 63.4063 8.24645C63.3426 8.23652 63.2774 8.24524 63.2186 8.27157C63.1597 8.2979 63.1098 8.34071 63.0748 8.39482C63.0397 8.44893 63.0212 8.51203 63.0212 8.57648V22.7554C63.0212 23.5849 62.5407 23.9995 61.5796 23.9992C60.6185 23.999 60.1379 23.5843 60.1379 22.7554V5.82261C60.1155 5.56764 60.1553 5.31105 60.2537 5.0748C60.3522 4.83854 60.5065 4.62967 60.7033 4.46606C61.0593 4.1904 61.497 4.04122 61.9472 4.04211C62.216 4.04294 62.4831 4.08582 62.7387 4.16918C63.0062 4.2567 63.2485 4.40747 63.4452 4.6087L80.1617 19.4105C80.2099 19.4532 80.2693 19.4811 80.3329 19.4907C80.3965 19.5004 80.4616 19.4915 80.5202 19.4651C80.5788 19.4386 80.6286 19.3958 80.6635 19.3418C80.6983 19.2877 80.7169 19.2247 80.7168 19.1604V5.20087C80.7168 4.37189 81.2257 3.9574 82.2435 3.9574C83.1665 3.9574 83.6282 4.37189 83.6284 5.20087V22.0485Z" fill="black"/>
<path d="M25.5108 3.90063H25.4265C24.5446 3.92181 24.1335 4.26744 24.1335 4.98748C24.1335 7.27783 23.0898 9.78636 21.3412 11.7003C20.1205 13.0495 18.5771 14.0667 16.8559 14.6566C15.1347 15.2465 13.2919 15.3898 11.5001 15.0731C10.2923 14.8598 9.12997 14.4408 8.0638 13.8344C7.01493 13.2385 6.07253 12.4721 5.27518 11.5669C4.87612 11.1144 4.51526 10.6297 4.19632 10.1176C3.54768 9.07432 3.08339 7.92718 2.82379 6.72643C2.68823 6.15692 2.61468 5.57441 2.60442 4.98907C2.60442 4.24746 2.21324 3.90223 1.37254 3.90223H1.29262C0.411162 3.92341 0 4.26904 0 4.98907V22.912C0 23.6056 0.380394 23.9509 1.19872 23.9952H1.26745C1.30224 23.9986 1.3372 23.9998 1.37214 23.9988C2.21604 23.9988 2.60722 23.6532 2.60722 22.912V12.3864L2.91409 12.8231C5.12693 15.9718 9.03916 17.8518 13.3789 17.8518C17.7027 17.8518 21.6102 15.9794 23.827 12.8427L24.1335 12.4096V22.912C24.1335 23.6056 24.5139 23.9509 25.3322 23.9952H25.4005C25.4405 23.9984 25.4652 23.9984 25.4928 23.9988H25.5863C26.3731 23.978 26.7407 23.6324 26.7407 22.912V4.98748C26.7395 4.24786 26.3491 3.90063 25.5108 3.90063Z" fill="black"/>
<path d="M107.985 18.4871H92.8338L89.5545 23.3771C89.4162 23.574 89.232 23.7342 89.0179 23.8438C88.8437 23.9383 88.6501 23.9914 88.4521 23.9992C88.0687 24.0036 87.6968 23.8679 87.4064 23.6176C87.2636 23.5049 87.1486 23.3608 87.0702 23.1967C86.9918 23.0325 86.952 22.8526 86.9541 22.6706C86.9574 22.4129 87.0254 22.1601 87.1518 21.9354L98.4874 4.94633C98.7037 4.61433 99.0003 4.34224 99.3496 4.15519C99.6678 3.98799 100.022 3.90063 100.381 3.90063C100.741 3.90063 101.095 3.98799 101.413 4.15519C101.757 4.33865 102.046 4.61206 102.247 4.94633L113.639 21.909C113.744 22.0251 113.817 22.1663 113.851 22.319C113.876 22.4352 113.891 22.5537 113.893 22.6726C113.9 22.852 113.864 23.0304 113.787 23.1928C113.711 23.3552 113.597 23.4968 113.454 23.6056C113.158 23.8326 112.795 23.9521 112.422 23.9445C112.21 23.9388 112.002 23.8856 111.814 23.789C111.589 23.6785 111.391 23.519 111.235 23.3223L107.985 18.4871ZM94.3881 16.0841H106.347L100.718 7.08965C100.688 7.04195 100.647 7.00257 100.598 6.97516C100.549 6.94776 100.493 6.93322 100.437 6.9329C100.381 6.93258 100.325 6.94649 100.276 6.97333C100.226 7.00018 100.184 7.0391 100.154 7.08646L94.3881 16.0841Z" fill="black"/>
<path d="M120.3 15.2645V22.7553C120.3 23.5849 119.82 23.9995 118.859 23.9992C117.841 23.9992 117.332 23.5846 117.333 22.7553V9.04516C117.333 5.74788 119.914 4.09898 125.077 4.09845H137.713C138.486 4.09845 138.872 4.47538 138.872 5.22924C138.872 6.03984 138.486 6.445 137.713 6.44474H125.36C121.987 6.44474 120.3 7.30223 120.3 9.0172V12.8615H137.572C138.326 12.8615 138.703 13.2478 138.703 14.0203C138.703 14.85 138.326 15.2648 137.572 15.2645H120.3Z" fill="black"/>
<path d="M145.165 12.8615H162.549C163.228 12.8615 163.567 13.2667 163.567 14.077C163.567 14.8684 163.228 15.2643 162.549 15.2645H145.165V18.9842C145.165 20.669 146.767 21.5115 149.97 21.5115H162.549C163.265 21.5115 163.623 21.9025 163.624 22.6846C163.624 23.4667 163.266 23.8578 162.549 23.8578H149.857C144.75 23.8578 142.196 22.2747 142.196 19.1084V8.98883C142.162 8.25641 142.329 7.52856 142.677 6.88358C143.026 6.2386 143.544 5.7009 144.175 5.32833C145.494 4.5084 147.482 4.09845 150.14 4.09845H162.607C163.285 4.09845 163.625 4.50361 163.624 5.31395C163.624 6.06781 163.285 6.44474 162.607 6.44474H151.271C147.2 6.44474 145.165 7.29277 145.165 8.98883V12.8615Z" fill="black"/>
<path d="M179.132 6.44554V22.7561C179.132 23.5857 178.633 24.0003 177.634 24C176.654 24 176.164 23.5854 176.164 22.7561V6.44554H168.053C167.318 6.44554 166.95 6.04038 166.951 5.23004C166.951 4.47645 167.318 4.09951 168.053 4.09924H187.247C187.944 4.09924 188.293 4.47618 188.293 5.23004C188.293 6.04065 187.944 6.44581 187.247 6.44554H179.132Z" fill="black"/>
<path d="M215.249 22.7554C215.249 23.5849 214.759 23.9995 213.779 23.9992C212.818 23.9992 212.337 23.5846 212.337 22.7554V15.2645H194.585V22.7554C194.585 23.5849 194.086 23.9995 193.087 23.9992C192.107 23.9992 191.617 23.5846 191.617 22.7554V5.20087C191.617 4.37189 192.126 3.9574 193.144 3.9574C194.105 3.9574 194.585 4.37189 194.585 5.20087V12.8615H212.337V5.20087C212.337 4.37189 212.808 3.9574 213.751 3.9574C214.749 3.9574 215.249 4.37189 215.249 5.20087V22.7554Z" fill="black"/>
<path d="M13.3773 8.9089C15.8374 8.9089 17.8317 6.91457 17.8317 4.45445C17.8317 1.99432 15.8374 0 13.3773 0C10.9172 0 8.92285 1.99432 8.92285 4.45445C8.92285 6.91457 10.9172 8.9089 13.3773 8.9089Z" fill="black"/>
</svg>
