<svg width="24" height="24" viewBox="0 0 24 24" fill="none" xmlns="http://www.w3.org/2000/svg">
<path fill-rule="evenodd" clip-rule="evenodd" d="M0 24V0H24V24H0Z" fill="white" fill-opacity="0.01"/>
<path fill-rule="evenodd" clip-rule="evenodd" d="M15.0946 15.9378L16.4378 12.4216L17.781 15.9378H15.0946ZM17.2669 10.2535H15.6087L11.8776 19.9981H13.5358L14.4645 17.5619H18.4029L19.3398 19.9981H20.998L17.2669 10.2535ZM12.5989 14.3706L10.4929 12.3323L10.5178 12.308C11.9605 10.7326 12.9886 8.92172 13.5939 7.00528H16.0232V5.38118H10.2193V3.75708H8.56104V5.38118H2.7571V6.99716H12.0185C11.463 8.56441 10.5841 10.0505 9.39018 11.3497C8.61908 10.5133 7.98065 9.59572 7.47488 8.62938H5.81661C6.42188 9.95302 7.25101 11.2036 8.28743 12.3323L4.06713 16.4088L5.2445 17.5619L9.39017 13.5017L11.9688 16.0271L12.5989 14.3706Z" fill="black"/>
</svg>
