<svg width="16" height="14" viewBox="0 0 16 14" fill="none" xmlns="http://www.w3.org/2000/svg">
<path fill-rule="evenodd" clip-rule="evenodd" d="M15.9761 1.97102C15.5632 2.5217 15.0642 3.00206 14.4983 3.39356C14.4983 3.5374 14.4983 3.68126 14.4983 3.8331C14.5028 6.44543 13.4594 8.95032 11.6018 10.7862C9.74427 12.6221 7.22802 13.6354 4.61718 13.599C3.10779 13.6041 1.61774 13.2594 0.26373 12.5921C0.190722 12.5602 0.143634 12.488 0.143914 12.4083V12.3204C0.143914 12.2056 0.236898 12.1126 0.351602 12.1126C1.83529 12.0637 3.26605 11.5493 4.44145 10.6421C3.09851 10.615 1.89019 9.81948 1.33412 8.59619C1.30603 8.52938 1.31478 8.45274 1.3572 8.39398C1.39962 8.33522 1.46959 8.30282 1.54181 8.30849C1.94996 8.34951 2.36219 8.31153 2.75599 8.1966C1.27349 7.88886 0.159554 6.65811 0.00013007 5.15174C-0.00553393 5.07948 0.0268501 5.00948 0.0855861 4.96704C0.144322 4.9246 0.220914 4.91585 0.287698 4.94396C0.685538 5.1195 1.115 5.21196 1.5498 5.21567C0.250778 4.36307 -0.31031 2.74137 0.183858 1.26774C0.234866 1.12455 0.357418 1.01877 0.506474 0.989271C0.65553 0.959775 0.809106 1.01091 0.910762 1.12389C2.66371 2.98956 5.07229 4.10129 7.62865 4.2247C7.56317 3.96341 7.53096 3.69489 7.53279 3.42552C7.55671 2.01309 8.43063 0.754855 9.74545 0.239888C11.0603 -0.27508 12.5557 0.055144 13.5318 1.07594C14.1971 0.949199 14.8403 0.725727 15.4409 0.412624C15.4849 0.385152 15.5407 0.385152 15.5847 0.412624C15.6121 0.45664 15.6121 0.512456 15.5847 0.556471C15.2938 1.22267 14.8023 1.78142 14.1788 2.15482C14.7248 2.09151 15.2612 1.96271 15.7764 1.77121C15.8198 1.74169 15.8768 1.74169 15.9202 1.77121C15.9565 1.78784 15.9837 1.81964 15.9945 1.85813C16.0053 1.89663 15.9985 1.93792 15.9761 1.97101L15.9761 1.97102Z" fill="#242424"/>
</svg>
