<svg width="24" height="24" viewBox="0 0 24 24" fill="none" xmlns="http://www.w3.org/2000/svg">
<circle cx="12.0001" cy="12" r="11.5" stroke="black"/>
<path fill-rule="evenodd" clip-rule="evenodd" d="M17.9821 8.47827C17.6725 8.89128 17.2982 9.25155 16.8738 9.54517C16.8738 9.65305 16.8738 9.76095 16.8738 9.87483C16.8772 11.8341 16.0946 13.7127 14.7014 15.0897C13.3082 16.4666 11.421 17.2266 9.46291 17.1993C8.33088 17.2031 7.21333 16.9446 6.19783 16.4441C6.14307 16.4201 6.10776 16.366 6.10797 16.3062V16.2403C6.10797 16.1542 6.1777 16.0844 6.26373 16.0844C7.3765 16.0478 8.44957 15.6619 9.33112 14.9816C8.32391 14.9613 7.41768 14.3646 7.00062 13.4471C6.97956 13.397 6.98611 13.3396 7.01793 13.2955C7.04974 13.2514 7.10222 13.2271 7.15639 13.2314C7.4625 13.2621 7.77167 13.2336 8.06702 13.1474C6.95515 12.9166 6.1197 11.9936 6.00013 10.8638C5.99588 10.8096 6.02017 10.7571 6.06422 10.7253C6.10827 10.6935 6.16572 10.6869 6.2158 10.708C6.51418 10.8396 6.83628 10.909 7.16238 10.9118C6.18811 10.2723 5.7673 9.05602 6.13792 7.95081C6.17618 7.84341 6.26809 7.76408 6.37989 7.74195C6.49168 7.71983 6.60686 7.75818 6.6831 7.84292C7.99782 9.24217 9.80425 10.076 11.7215 10.1685C11.6724 9.97256 11.6483 9.77117 11.6496 9.56914C11.6676 8.50981 12.323 7.56614 13.3091 7.17992C14.2952 6.79369 15.4168 7.04136 16.1489 7.80696C16.6478 7.7119 17.1302 7.5443 17.5807 7.30947C17.6137 7.28886 17.6555 7.28886 17.6885 7.30947C17.7091 7.34248 17.7091 7.38434 17.6885 7.41735C17.4704 7.917 17.1017 8.33607 16.6341 8.61612C17.0436 8.56863 17.4459 8.47203 17.8323 8.32841C17.8649 8.30626 17.9076 8.30626 17.9402 8.32841C17.9674 8.34088 17.9878 8.36473 17.9959 8.3936C18.004 8.42247 17.9989 8.45344 17.9821 8.47825L17.9821 8.47827Z" fill="#242424"/>
</svg>
